<svg xmlns="http://www.w3.org/2000/svg" width="43" height="43" fill="none" viewBox="0 0 43 43">
  <g class="bala 2" clip-path="url(#clip0)">
    <path fill="#FC6E51" d="M17.402 25.163l-.158 6.216c-.036 1.402.584 4.1 1.176 6.158.326 1.133.672 2.174.973 2.934.422 1.066.736 1.61 1.272 1.624.456.011.807-.34 1.343-1.347.364-.683.772-1.608 1.148-2.605.442-1.174 1.479-4.165 1.54-6.573l.16-6.248a.626.626 0 00-.61-.641l-6.202-.159a.627.627 0 00-.642.609v.032z" class="Vector"/>
    <path fill="#fff" d="M17.402 25.162l-.158 6.216c-.036 1.402.584 4.101 1.176 6.159a33.68 33.68 0 00.973 2.933c.422 1.067.735 1.61 1.272 1.625.228.005.43-.08.643-.294-.227-.269-.43-.702-.666-1.299-.301-.76-.646-1.802-.972-2.934-.593-2.058-1.212-4.755-1.177-6.158l.16-6.216c-.001-.01-.002-.02 0-.031a.624.624 0 01.64-.609l-1.25-.032a.627.627 0 00-.641.609v.031z" class="Vector_2" opacity=".2"/>
    <path fill="#CCD1D9" d="M18.14 20.061a.625.625 0 01.61.641l-.068 2.65a.625.625 0 01-1.25-.032l.068-2.65a.626.626 0 01.64-.609z" class="Vector_3"/>
    <path fill="#E6E9ED" d="M24.682 6.081c.345.01.618.296.61.642l-.069 2.652a.624.624 0 11-1.25-.032l.068-2.653a.626.626 0 01.641-.609z" class="Vector_4"/>
    <path fill="#CCD1D9" d="M24.57 10.493a.625.625 0 01.608.641l-.316 12.372a.624.624 0 11-1.248-.032l.315-12.372a.624.624 0 01.64-.609z" class="Vector_5"/>
    <path fill="#E6E9ED" d="M21.335 16.164a.625.625 0 01.608.64l-.166 6.493a.624.624 0 11-1.249-.032l.166-6.492a.624.624 0 01.64-.609z" class="Vector_6"/>
    <path fill="#CCD1D9" d="M21.74.26a.624.624 0 01.609.64l-.36 14.137a.625.625 0 01-1.25-.033L21.098.87A.624.624 0 0121.74.26z" class="Vector_7"/>
    <path fill="#E6E9ED" d="M18.433 8.575a.625.625 0 01.61.64l-.249 9.72a.624.624 0 11-1.25-.032l.249-9.72a.624.624 0 01.64-.608z" class="Vector_8"/>
  </g>
  <defs>
    <clipPath id="clip0" class="clip0">
      <path fill="#fff" d="M0 0h30v30H0z" transform="rotate(136.462 16.864 19.342)"/>
    </clipPath>
  </defs>
</svg>
