<svg height="423pt" viewBox="0 -21 423.25663 423" width="423pt" xmlns="http://www.w3.org/2000/svg"><path d="m95.574219 368.78125-81.921875-109.226562 81.921875-27.308594-40.960938-95.570313 81.921875-13.65625 27.304688-109.226562 136.535156 136.535156 109.226562-40.960937-54.613281 122.878906 54.613281 27.308594-95.574218 109.226562" fill="#e86436"/><path d="m95.589844 382.433594c-4.164063 0-8.253906-1.878906-10.933594-5.464844l-81.921875-109.226562c-2.640625-3.507813-3.425781-8.070313-2.105469-12.253907 1.308594-4.199219 4.546875-7.496093 8.707032-8.878906l67.839843-22.628906-35.105469-81.933594c-1.652343-3.855469-1.441406-8.238281.574219-11.917969 2-3.679687 5.597657-6.226562 9.730469-6.921875l73.082031-12.1875 25.144531-100.53125c1.1875-4.773437 4.855469-8.535156 9.601563-9.855469 4.71875-1.332031 9.800781.015626 13.292969 3.507813l130.320312 130.320313 100.984375-37.878907c5.175781-1.921875 10.960938-.574219 14.734375 3.425781 3.773438 4 4.773438 9.878907 2.546875 14.90625l-49.320312 110.960938 42.949219 21.464844c3.785156 1.894531 6.476562 5.429687 7.289062 9.574218.816406 4.160157-.34375 8.453126-3.117188 11.625l-95.574218 109.226563c-4.988282 5.695313-13.613282 6.242187-19.265625 1.292969-5.679688-4.972656-6.253907-13.597656-1.292969-19.265625l83.945312-95.933594-38.8125-19.398437c-6.53125-3.265626-9.332031-11.09375-6.371093-17.761719l41.386719-93.105469-78.722657 29.519531c-5 1.882813-10.679687.667969-14.453125-3.132812l-119.480468-119.480469-21.464844 85.828125c-1.308594 5.277344-5.640625 9.265625-11 10.160156l-64.761719 10.796875 34.109375 79.589844c1.503906 3.503906 1.464844 7.480469-.09375 10.957031-1.5625 3.496094-4.519531 6.160157-8.136719 7.359375l-63.945312 21.320313 70.546875 94.082031c4.53125 6.023438 3.304687 14.585938-2.734375 19.105469-2.453125 1.839843-5.320313 2.734375-8.171875 2.734375zm0 0" fill="#5d038e"/><path d="m163.839844 368.78125-27.304688-54.613281 40.960938-54.613281-13.65625-68.265626 27.308594-13.65625 27.304687-27.304687 13.65625 54.613281h27.304687l13.652344 54.613282 27.308594 27.304687-40.960938 81.921875" fill="#f6d831"/><path d="m259.402344 382.433594c-2.054688 0-4.136719-.464844-6.09375-1.441406-6.746094-3.371094-9.480469-11.570313-6.105469-18.316407l36.558594-73.121093-20.347657-20.347657c-1.746093-1.746093-2.984374-3.945312-3.585937-6.347656l-11.082031-44.265625h-16.636719c-6.269531 0-11.722656-4.269531-13.242187-10.347656l-7.8125-31.210938-10.253907 10.253906c-1.039062 1.039063-2.238281 1.90625-3.546875 2.558594l-17.972656 8.988282 11.601562 58.039062c.757813 3.8125-.132812 7.761719-2.46875 10.867188l-35.890624 47.867187 23.53125 47.066406c3.375 6.746094.640624 14.945313-6.105469 18.316407-6.734375 3.347656-14.933594.65625-18.320313-6.105469l-27.304687-54.613281c-2.308594-4.625-1.8125-10.160157 1.292969-14.292969l37.292968-49.734375-12.453125-62.277344c-1.214843-6.042969 1.773438-12.132812 7.28125-14.894531l25.320313-12.667969 25.746094-25.734375c3.464843-3.480469 8.535156-4.851563 13.292968-3.507813 4.746094 1.320313 8.414063 5.082032 9.601563 9.855469l11.078125 44.265625h16.636718c6.265626 0 11.71875 4.265625 13.242188 10.347656l12.746094 50.933594 24.625 24.640625c4.164062 4.160157 5.1875 10.503907 2.5625 15.757813l-40.960938 81.921875c-2.402344 4.789062-7.214844 7.546875-12.226562 7.546875zm0 0" fill="#5d038e"/></svg>