<?xml version="1.0" encoding="iso-8859-1"?>
<!-- Generator: Adobe Illustrator 19.0.0, SVG Export Plug-In . SVG Version: 6.00 Build 0)  -->
<svg version="1.1" id="Capa_1" xmlns="http://www.w3.org/2000/svg" xmlns:xlink="http://www.w3.org/1999/xlink" x="0px" y="0px"
	 viewBox="0 0 512 512" style="enable-background:new 0 0 512 512;" xml:space="preserve">
<path style="fill:#858A8F;" d="M62.613,355.567v79.681C109.61,481.76,180.686,502,260.204,502
	c74.883,0,142.296-16.874,189.183-58.873v-79.681c-46.888,41.999-114.3,58.873-189.183,58.873
	C180.686,422.319,109.61,402.079,62.613,355.567z"/>
<path style="fill:#DBDBDB;" d="M256,10C149.193,10,62.613,96.58,62.613,203.387v152.18c46.998,46.512,118.074,66.752,197.592,66.752
	c74.883,0,142.296-16.874,189.183-58.873V203.387C449.387,96.58,362.807,10,256,10z"/>
<path d="M260.204,477c-44.457,0-107.693-6.975-156.481-40.204c-4.565-3.109-5.745-9.33-2.636-13.895
	c3.107-4.564,9.331-5.744,13.894-2.636C159.559,450.627,218.559,457,260.204,457c43.77,0,81.369-6.224,111.755-18.5
	c5.123-2.068,10.95,0.405,13.018,5.526c2.069,5.121-0.405,10.949-5.525,13.018C346.673,470.286,306.553,477,260.204,477z"/>
<path d="M410.04,439.57c-0.65,0-1.311-0.06-1.95-0.19s-1.271-0.32-1.87-0.57c-0.61-0.25-1.189-0.56-1.729-0.92
	c-0.551-0.37-1.061-0.78-1.521-1.24s-0.88-0.98-1.24-1.52c-0.359-0.55-0.67-1.13-0.92-1.73s-0.45-1.23-0.569-1.87
	c-0.131-0.65-0.2-1.3-0.2-1.95c0-0.66,0.069-1.31,0.2-1.96c0.119-0.64,0.319-1.27,0.569-1.87s0.561-1.19,0.92-1.73
	c0.36-0.54,0.78-1.06,1.24-1.52s0.97-0.88,1.521-1.24c0.54-0.36,1.119-0.67,1.729-0.92c0.6-0.25,1.23-0.44,1.87-0.57
	c1.29-0.26,2.61-0.26,3.91,0c0.63,0.13,1.26,0.32,1.87,0.57c0.6,0.25,1.18,0.56,1.72,0.92c0.55,0.36,1.06,0.78,1.52,1.24
	s0.881,0.98,1.25,1.52c0.36,0.54,0.66,1.13,0.91,1.73s0.45,1.23,0.58,1.87c0.13,0.65,0.19,1.3,0.19,1.96c0,0.65-0.061,1.3-0.19,1.95
	c-0.13,0.64-0.33,1.27-0.58,1.87s-0.55,1.18-0.91,1.73c-0.369,0.54-0.79,1.06-1.25,1.52s-0.97,0.87-1.52,1.24
	c-0.54,0.36-1.12,0.67-1.72,0.92c-0.61,0.25-1.24,0.44-1.87,0.57C411.35,439.51,410.689,439.57,410.04,439.57z"/>
<path style="fill:#2DA0A4;" d="M390.389,212.704c0,84.075-78.576,163.768-115.559,187.786c-11.464,7.448-26.223,7.503-37.733,0.119
	c-37.019-23.734-115.486-102.832-115.486-187.905c0-21.108,5.051-41.072,14.026-58.795c5.755-11.4,13.148-21.877,21.867-31.127
	c24.557-26.067,59.637-42.399,98.513-42.399c38.867,0,73.928,16.332,98.486,42.39c8.71,9.241,16.094,19.708,21.858,31.108
	C385.339,171.613,390.389,191.587,390.389,212.704z"/>
<path style="fill:#DBDBDB;" d="M348.636,228.534c-0.323-1.526-1.652-2.628-3.197-2.646c-0.473-0.006-11.637-0.09-24.22,3.789
	c-11.242,3.466-19.976,8.949-25.95,16.282c-2.67,3.274-4.741,6.86-6.327,10.578c-0.772,1.801-1.432,3.632-1.993,5.473
	c-0.748,2.454-1.322,4.926-1.754,7.366c-0.108,0.61-0.207,1.218-0.298,1.823c-0.545,3.632-0.791,7.165-0.85,10.435
	c-0.01,0.545-0.015,1.083-0.015,1.612c0,6.356,0.671,11.55,1.111,14.267c0.073,0.453,0.14,0.837,0.196,1.146
	s0.102,0.543,0.133,0.697c0.015,0.077,0.027,0.133,0.035,0.168c0.159,0.766,0.572,1.423,1.139,1.892
	c0.567,0.468,1.289,0.748,2.064,0.76c0.015,0,0.04,0,0.075,0c0.142,0,0.446,0,0.895-0.009c0.561-0.011,1.349-0.036,2.327-0.09
	c0.391-0.021,0.813-0.048,1.263-0.079c0.242-0.017,0.494-0.036,0.752-0.057c1.181-0.094,2.523-0.224,3.997-0.407
	c0.336-0.042,0.68-0.087,1.029-0.134c0.895-0.121,1.83-0.26,2.802-0.422c2.026-0.338,4.203-0.77,6.471-1.324
	c0.756-0.185,1.522-0.383,2.296-0.596s1.556-0.44,2.343-0.683c4.628-1.425,8.831-3.192,12.588-5.289
	c2.255-1.258,4.349-2.635,6.28-4.127l0,0c2.67-2.065,5.022-4.352,7.058-6.854C355.378,261.883,348.924,229.881,348.636,228.534z"/>
<path d="M288.784,312.176c-0.053,0-0.18,0-0.232-0.001c-3.014-0.047-5.953-1.13-8.276-3.05c-2.328-1.925-3.947-4.612-4.561-7.568
	c-0.009-0.042-0.017-0.083-0.025-0.125c-0.057-0.276-0.114-0.576-0.187-0.971c-0.067-0.365-0.146-0.818-0.232-1.352
	c-0.462-2.86-1.238-8.724-1.238-15.864c0-0.589,0.006-1.186,0.017-1.792c0.072-4.032,0.395-7.981,0.958-11.739
	c0.104-0.688,0.217-1.38,0.339-2.074c0.526-2.965,1.211-5.837,2.039-8.55c0.68-2.232,1.477-4.419,2.367-6.496
	c2.033-4.766,4.649-9.13,7.768-12.955c7.246-8.894,17.594-15.462,30.754-19.519c13.852-4.27,25.953-4.255,27.29-4.232
	c6.26,0.073,11.546,4.415,12.854,10.561c0.33,1.547,7.806,37.958-11.783,61.975c-2.504,3.079-5.43,5.923-8.688,8.443
	c-2.318,1.792-4.851,3.458-7.528,4.951c-4.356,2.431-9.24,4.487-14.515,6.112c-0.884,0.272-1.764,0.528-2.633,0.768
	c-0.872,0.239-1.73,0.462-2.578,0.668c-2.33,0.57-4.753,1.066-7.198,1.474c-1.08,0.18-2.115,0.334-3.105,0.468
	c-0.394,0.053-0.774,0.103-1.145,0.148c-1.476,0.184-2.97,0.335-4.437,0.451l-0.835,0.063c-0.511,0.036-0.988,0.066-1.43,0.089
	c-1.112,0.062-2.019,0.089-2.663,0.103C289.333,312.176,288.958,312.176,288.784,312.176z M295.293,297.474l0.004,0.017
	C295.296,297.485,295.296,297.479,295.293,297.474z M339.664,236.201c-3.957,0.377-9.576,1.208-15.498,3.033
	c-9.32,2.873-16.434,7.261-21.144,13.042c-1.936,2.374-3.577,5.126-4.882,8.185c-0.611,1.426-1.156,2.92-1.625,4.462
	c-0.596,1.951-1.091,4.035-1.475,6.198c-0.091,0.515-0.177,1.039-0.255,1.561c-0.436,2.897-0.685,5.969-0.741,9.13
	c-0.009,0.484-0.013,0.962-0.013,1.433c0,3.317,0.205,6.274,0.449,8.617c0.767-0.073,1.536-0.158,2.303-0.253l0.93-0.121
	c0.79-0.107,1.626-0.232,2.494-0.376c1.952-0.326,3.884-0.721,5.737-1.174c0.667-0.163,1.34-0.337,2.021-0.524
	c0.674-0.186,1.358-0.384,2.047-0.597c3.939-1.213,7.525-2.716,10.662-4.466c1.811-1.01,3.505-2.122,5.036-3.306
	c2.046-1.583,3.869-3.351,5.416-5.253C341.026,263.657,340.628,245.333,339.664,236.201z M345.322,235.888h0.01H345.322z
	 M348.637,228.534l-9.783,2.072c0.001,0.004,0.002,0.008,0.003,0.012L348.637,228.534z"/>
<path style="fill:#DBDBDB;" d="M163.364,228.534c0.323-1.526,1.652-2.628,3.197-2.646c0.473-0.006,11.637-0.09,24.22,3.789
	c11.242,3.466,19.976,8.949,25.95,16.282c2.67,3.274,4.741,6.86,6.327,10.578c0.772,1.801,1.432,3.632,1.993,5.473
	c0.748,2.454,1.322,4.926,1.754,7.366c0.108,0.61,0.207,1.218,0.298,1.823c0.545,3.632,0.791,7.165,0.85,10.435
	c0.01,0.545,0.015,1.083,0.015,1.612c0,6.356-0.671,11.55-1.111,14.267c-0.073,0.453-0.14,0.837-0.196,1.146
	s-0.102,0.543-0.133,0.697c-0.015,0.077-0.027,0.133-0.035,0.168c-0.159,0.766-0.572,1.423-1.139,1.892
	c-0.567,0.468-1.289,0.748-2.064,0.76c-0.015,0-0.04,0-0.075,0c-0.142,0-0.446,0-0.895-0.009c-0.561-0.011-1.349-0.036-2.327-0.09
	c-0.391-0.021-0.813-0.048-1.263-0.079c-0.242-0.017-0.494-0.036-0.752-0.057c-1.181-0.094-2.523-0.224-3.997-0.407
	c-0.336-0.042-0.68-0.087-1.029-0.134c-0.895-0.121-1.83-0.26-2.802-0.422c-2.026-0.338-4.203-0.77-6.471-1.324
	c-0.756-0.185-1.522-0.383-2.296-0.596s-1.556-0.44-2.343-0.683c-4.628-1.425-8.831-3.192-12.588-5.289
	c-2.255-1.258-4.349-2.635-6.28-4.127l0,0c-2.67-2.065-5.022-4.352-7.058-6.854C156.623,261.883,163.076,229.881,163.364,228.534z"
	/>
<path d="M223.291,312.176c-0.249,0-0.624,0-1.177-0.012c-0.639-0.013-1.545-0.041-2.669-0.103c-0.43-0.023-0.907-0.053-1.417-0.089
	l-0.842-0.063c-1.461-0.116-2.955-0.268-4.438-0.452c-0.363-0.045-0.744-0.095-1.129-0.147c-0.999-0.135-2.034-0.29-3.109-0.469
	c-2.45-0.409-4.873-0.905-7.206-1.475c-0.845-0.206-1.703-0.429-2.571-0.667c-0.873-0.24-1.753-0.496-2.639-0.769
	c-5.272-1.625-10.156-3.681-14.514-6.112c-2.677-1.493-5.209-3.158-7.524-4.949c-3.261-2.522-6.187-5.366-8.699-8.455
	c-19.58-24.007-12.104-60.418-11.774-61.965c1.308-6.146,6.594-10.488,12.86-10.561c1.339-0.009,13.433-0.037,27.283,4.233
	c13.16,4.057,23.508,10.625,30.757,19.522c3.115,3.821,5.731,8.186,7.772,12.97c0.883,2.058,1.68,4.246,2.361,6.483
	c0.826,2.707,1.511,5.579,2.035,8.533c0.124,0.705,0.237,1.396,0.341,2.085c0.563,3.757,0.886,7.707,0.958,11.739
	c0.011,0.605,0.017,1.203,0.017,1.792c0,7.14-0.776,13.004-1.238,15.864c-0.087,0.534-0.165,0.987-0.232,1.352
	c-0.072,0.395-0.13,0.695-0.17,0.891l-9.825-1.866l9.8,1.988c-0.63,3.039-2.249,5.726-4.574,7.648
	c-2.326,1.922-5.266,3.005-8.279,3.052C223.396,312.176,223.344,312.176,223.291,312.176z M172.336,236.201
	c-0.963,9.131-1.364,27.453,8.528,39.583c1.556,1.912,3.379,3.68,5.428,5.265c1.528,1.182,3.223,2.294,5.032,3.304
	c3.138,1.75,6.724,3.253,10.661,4.466c0.69,0.213,1.375,0.412,2.053,0.598c0.677,0.187,1.35,0.36,2.014,0.523
	c1.856,0.454,3.788,0.849,5.745,1.175c0.863,0.144,1.699,0.269,2.498,0.376l0.914,0.119c0.771,0.096,1.544,0.18,2.31,0.253
	c0.244-2.343,0.449-5.299,0.449-8.617c0-0.471-0.004-0.949-0.013-1.433c-0.057-3.161-0.306-6.233-0.741-9.13
	c-0.078-0.522-0.164-1.046-0.257-1.572c-0.382-2.153-0.877-4.236-1.471-6.182c-0.471-1.547-1.016-3.042-1.619-4.449
	c-1.313-3.077-2.954-5.83-4.887-8.201c-4.713-5.784-11.826-10.172-21.146-13.045C181.912,237.408,176.293,236.578,172.336,236.201z
	 M163.363,228.534h0.01H163.363z"/>
<path d="M274.757,351.146h-37.514c-5.522,0-10-4.477-10-10s4.478-10,10-10h37.514c5.522,0,10,4.477,10,10
	S280.279,351.146,274.757,351.146z"/>
<path style="fill:#098287;" d="M354.504,122.773c-5.737,2.013-11.904,3.102-18.327,3.102h-23.103
	c-7.256,0-13.825,2.946-18.583,7.695c-4.749,4.758-7.695,11.327-7.695,18.583c0,8.509-3.449,16.204-9.022,21.776
	c-5.572,5.572-13.267,9.021-21.776,9.021s-16.204-3.449-21.776-9.021c-5.572-5.572-9.021-13.267-9.021-21.776
	c0-14.511-11.766-26.278-26.278-26.278H175.82c-6.414,0-12.581-1.089-18.317-3.092c24.557-26.067,59.637-42.399,98.513-42.399
	C294.886,80.383,329.947,96.715,354.504,122.773z"/>
<path d="M256,0C143.852,0,52.612,91.239,52.612,203.388v152.18v79.681c0,2.67,1.068,5.229,2.966,7.108
	C101.615,487.917,172.374,512,260.204,512c84.458,0,150.354-20.666,195.855-61.424c2.118-1.897,3.328-4.605,3.328-7.449v-79.681
	V203.388C459.388,91.239,368.148,0,256,0z M256,20c101.12,0,183.388,82.268,183.388,183.388V358.89
	c-0.109,0.092-0.214,0.188-0.323,0.28c-0.621,0.526-1.255,1.04-1.885,1.558c-0.711,0.586-1.418,1.175-2.14,1.751
	c-0.639,0.51-1.29,1.008-1.937,1.51c-0.731,0.567-1.459,1.138-2.201,1.695c-0.656,0.493-1.324,0.975-1.988,1.46
	c-0.751,0.549-1.499,1.099-2.26,1.638c-0.673,0.477-1.358,0.943-2.04,1.412c-0.771,0.53-1.54,1.062-2.322,1.582
	c-0.69,0.459-1.39,0.909-2.087,1.36c-0.791,0.512-1.582,1.025-2.384,1.527c-0.707,0.443-1.424,0.877-2.14,1.312
	c-0.81,0.493-1.621,0.986-2.441,1.469c-0.725,0.427-1.459,0.845-2.193,1.264c-0.83,0.474-1.661,0.947-2.501,1.412
	c-0.741,0.409-1.49,0.811-2.239,1.213c-0.851,0.457-1.704,0.911-2.566,1.358c-0.756,0.392-1.519,0.776-2.283,1.16
	c-0.873,0.439-1.748,0.875-2.631,1.303c-0.772,0.375-1.552,0.743-2.332,1.111c-0.892,0.42-1.788,0.837-2.69,1.246
	c-0.789,0.358-1.584,0.711-2.381,1.061c-0.912,0.401-1.828,0.798-2.751,1.189c-0.806,0.341-1.616,0.678-2.43,1.012
	c-0.933,0.383-1.871,0.761-2.815,1.134c-0.82,0.324-1.644,0.643-2.472,0.96c-0.954,0.365-1.914,0.724-2.879,1.078
	c-0.836,0.307-1.676,0.611-2.519,0.91c-0.975,0.346-1.956,0.686-2.941,1.022c-0.852,0.29-1.706,0.578-2.565,0.86
	c-0.995,0.327-1.997,0.648-3.002,0.964c-0.868,0.273-1.738,0.545-2.613,0.811c-1.014,0.308-2.036,0.609-3.061,0.906
	c-0.885,0.257-1.771,0.513-2.663,0.762c-1.035,0.289-2.077,0.57-3.122,0.849c-0.899,0.24-1.798,0.479-2.704,0.711
	c-1.056,0.271-2.121,0.533-3.187,0.793c-0.914,0.223-1.828,0.446-2.75,0.662c-1.078,0.252-2.164,0.494-3.252,0.736
	c-0.927,0.206-1.853,0.412-2.787,0.611c-1.099,0.233-2.208,0.456-3.318,0.679c-0.943,0.189-1.885,0.38-2.835,0.562
	c-1.117,0.214-2.245,0.416-3.373,0.619c-0.959,0.173-1.916,0.348-2.883,0.513c-1.141,0.195-2.293,0.378-3.444,0.563
	c-0.97,0.155-1.936,0.314-2.913,0.462c-1.164,0.176-2.34,0.34-3.514,0.506c-0.984,0.139-1.965,0.281-2.957,0.413
	c-1.184,0.157-2.381,0.301-3.576,0.447c-0.997,0.122-1.989,0.248-2.994,0.363c-1.212,0.138-2.437,0.263-3.66,0.39
	c-1.005,0.105-2.004,0.215-3.016,0.312c-1.243,0.12-2.5,0.225-3.754,0.333c-1.008,0.087-2.01,0.181-3.025,0.261
	c-1.284,0.102-2.583,0.188-3.879,0.278c-1.001,0.07-1.995,0.146-3.003,0.209c-1.337,0.083-2.689,0.15-4.038,0.222
	c-0.984,0.052-1.96,0.112-2.95,0.157c-1.41,0.065-2.836,0.113-4.258,0.164c-0.945,0.034-1.883,0.078-2.833,0.106
	c-0.112,0.003-0.226,0.004-0.338,0.008c2.035-0.92,4.018-1.994,5.927-3.233c18.037-11.714,48.317-38.092,74.294-73.884
	c20.902-28.799,45.818-73.392,45.818-122.289c0-22.228-5.082-43.539-15.103-63.334c-6.164-12.193-14.072-23.449-23.505-33.455
	c-27.27-28.936-65.818-45.532-105.763-45.532c-6.245,0-12.455,0.405-18.593,1.2c-31.919,4.13-61.89,18.779-84.609,41.664
	c-0.874,0.881-1.738,1.773-2.59,2.678c-0.001,0.001-0.001,0.001-0.002,0.002c-9.452,10.028-17.363,21.29-23.508,33.464
	c-0.001,0.003-0.003,0.006-0.004,0.008c-0.001,0.001-0.001,0.002-0.002,0.003c0,0.001-0.001,0.002-0.001,0.003
	c-10.019,19.787-15.098,41.084-15.098,63.299c0,49.444,24.89,94.087,45.77,122.832c25.936,35.703,56.244,61.903,74.316,73.49
	c1.555,0.998,3.167,1.866,4.807,2.653c-0.659-0.036-1.312-0.078-1.968-0.117c-1.375-0.081-2.755-0.157-4.119-0.251
	c-1.09-0.076-2.166-0.168-3.249-0.252c-1.319-0.102-2.643-0.199-3.952-0.314c-1.1-0.096-2.186-0.209-3.278-0.314
	c-1.275-0.123-2.555-0.241-3.82-0.375c-1.099-0.117-2.186-0.25-3.278-0.376c-1.242-0.143-2.488-0.282-3.721-0.438
	c-1.095-0.138-2.177-0.291-3.264-0.438c-1.211-0.164-2.425-0.324-3.626-0.499c-1.091-0.159-2.169-0.332-3.252-0.501
	c-1.181-0.184-2.365-0.364-3.536-0.559c-1.083-0.18-2.153-0.374-3.228-0.563c-1.153-0.203-2.308-0.404-3.451-0.618
	c-1.075-0.202-2.139-0.416-3.205-0.627c-1.125-0.223-2.253-0.443-3.368-0.677c-1.062-0.222-2.113-0.457-3.166-0.688
	c-1.103-0.243-2.207-0.484-3.3-0.738c-1.048-0.243-2.085-0.497-3.124-0.75c-1.081-0.263-2.162-0.525-3.233-0.798
	c-1.031-0.263-2.052-0.537-3.074-0.809c-1.06-0.283-2.12-0.566-3.171-0.859c-1.016-0.284-2.023-0.577-3.03-0.871
	c-1.038-0.302-2.075-0.605-3.103-0.918c-0.999-0.304-1.989-0.617-2.979-0.931c-1.017-0.322-2.033-0.646-3.041-0.978
	c-0.982-0.324-1.955-0.657-2.927-0.99c-0.996-0.342-1.991-0.686-2.977-1.038c-0.963-0.344-1.919-0.696-2.872-1.049
	c-0.977-0.362-1.952-0.727-2.92-1.1c-0.943-0.363-1.88-0.734-2.814-1.107c-0.956-0.382-1.909-0.767-2.856-1.159
	c-0.925-0.383-1.844-0.773-2.76-1.166c-0.937-0.402-1.87-0.808-2.797-1.221c-0.904-0.402-1.802-0.81-2.695-1.221
	c-0.918-0.423-1.832-0.85-2.74-1.283c-0.883-0.421-1.76-0.847-2.633-1.277c-0.899-0.443-1.793-0.892-2.681-1.345
	c-0.861-0.439-1.718-0.883-2.569-1.332c-0.88-0.464-1.755-0.935-2.624-1.409c-0.839-0.457-1.674-0.918-2.502-1.385
	c-0.862-0.485-1.717-0.977-2.568-1.473c-0.816-0.475-1.629-0.953-2.434-1.437c-0.844-0.507-1.679-1.021-2.511-1.538
	c-0.793-0.493-1.584-0.987-2.367-1.489c-0.823-0.528-1.638-1.063-2.45-1.601c-0.771-0.51-1.54-1.022-2.301-1.541
	c-0.805-0.549-1.599-1.107-2.393-1.667c-0.747-0.527-1.493-1.054-2.229-1.59c-0.786-0.572-1.562-1.153-2.336-1.735
	c-0.722-0.543-1.444-1.085-2.156-1.636c-0.767-0.594-1.522-1.198-2.278-1.803c-0.698-0.559-1.398-1.117-2.086-1.685
	c-0.748-0.617-1.483-1.244-2.219-1.871c-0.673-0.573-1.347-1.145-2.01-1.727c-0.731-0.642-1.449-1.296-2.168-1.949
	c-0.646-0.586-1.294-1.17-1.929-1.765c-0.186-0.174-0.365-0.353-0.551-0.528V203.388C72.612,102.268,154.88,20,256,20z
	 M184.193,112.921c0.067-0.046,0.135-0.091,0.202-0.137c1.19-0.824,2.396-1.621,3.613-2.403c0.26-0.167,0.519-0.335,0.779-0.5
	c1.246-0.788,2.505-1.555,3.778-2.298c0.232-0.135,0.467-0.266,0.699-0.4c1.177-0.677,2.365-1.336,3.563-1.974
	c0.192-0.102,0.381-0.208,0.574-0.309c1.307-0.688,2.628-1.348,3.958-1.989c0.295-0.142,0.592-0.283,0.889-0.423
	c1.356-0.641,2.72-1.266,4.099-1.858c0.057-0.025,0.116-0.047,0.173-0.072c1.34-0.573,2.692-1.117,4.051-1.644
	c0.295-0.114,0.589-0.23,0.885-0.342c1.377-0.522,2.763-1.022,4.158-1.496c0.248-0.084,0.499-0.164,0.748-0.246
	c1.286-0.428,2.579-0.836,3.88-1.222c0.22-0.065,0.438-0.135,0.659-0.199c1.42-0.414,2.849-0.798,4.284-1.162
	c0.317-0.08,0.634-0.158,0.951-0.236c1.467-0.36,2.939-0.703,4.421-1.01c0.031-0.006,0.061-0.012,0.092-0.018
	c1.458-0.301,2.924-0.569,4.394-0.819c0.319-0.054,0.638-0.109,0.958-0.161c1.463-0.237,2.931-0.451,4.405-0.637
	c0.252-0.032,0.506-0.058,0.759-0.088c1.352-0.162,2.709-0.302,4.068-0.42c0.245-0.021,0.49-0.047,0.736-0.067
	c1.485-0.12,2.974-0.21,4.466-0.277c0.328-0.015,0.657-0.026,0.986-0.038c1.53-0.056,3.063-0.095,4.599-0.095
	c1.536,0,3.068,0.039,4.599,0.095c0.327,0.012,0.654,0.023,0.981,0.038c1.493,0.067,2.982,0.157,4.468,0.277
	c0.243,0.02,0.485,0.045,0.728,0.066c1.362,0.118,2.721,0.258,4.077,0.421c0.25,0.03,0.502,0.056,0.752,0.088
	c1.476,0.186,2.947,0.401,4.413,0.638c0.313,0.051,0.625,0.105,0.938,0.158c1.482,0.252,2.96,0.521,4.43,0.826
	c0.02,0.004,0.04,0.008,0.06,0.012c1.487,0.309,2.965,0.653,4.438,1.014c0.309,0.076,0.617,0.151,0.925,0.229
	c1.441,0.365,2.876,0.752,4.302,1.168c0.212,0.062,0.422,0.128,0.633,0.191c1.313,0.39,2.62,0.802,3.919,1.235
	c0.238,0.079,0.477,0.155,0.714,0.235c1.402,0.476,2.794,0.979,4.178,1.503c0.287,0.109,0.574,0.221,0.86,0.332
	c1.376,0.533,2.745,1.083,4.101,1.664c0.042,0.018,0.086,0.035,0.128,0.053c1.385,0.595,2.756,1.223,4.119,1.867
	c0.289,0.136,0.577,0.273,0.865,0.412c1.335,0.643,2.66,1.306,3.972,1.997c0.188,0.099,0.374,0.203,0.562,0.303
	c1.202,0.641,2.394,1.302,3.575,1.981c0.231,0.133,0.464,0.263,0.693,0.397c1.271,0.742,2.528,1.508,3.772,2.294
	c0.266,0.168,0.531,0.34,0.796,0.51c1.206,0.775,2.403,1.566,3.583,2.383c0.076,0.052,0.153,0.102,0.228,0.155
	c1.227,0.853,2.433,1.735,3.63,2.633c0.14,0.105,0.279,0.211,0.419,0.316h-18.802c-9.679,0-18.787,3.771-25.66,10.63
	c-6.847,6.859-10.617,15.967-10.617,25.647c0,5.553-2.164,10.776-6.093,14.705s-9.151,6.093-14.705,6.093
	s-10.776-2.164-14.705-6.092c-3.929-3.929-6.093-9.152-6.093-14.705c0-20.003-16.274-36.277-36.277-36.277H180.14
	c0.133-0.101,0.266-0.202,0.4-0.302C181.743,114.669,182.958,113.78,184.193,112.921z M140.911,166.342l1.226,0.428
	c10.822,3.784,22.156,5.702,33.686,5.702h13.56c5.522,0,10-4.477,10-10s-4.478-10-10-10h-13.56c-8.738,0-17.33-1.368-25.569-4.069
	c0.198-0.314,0.389-0.632,0.59-0.944c0.185-0.287,0.37-0.574,0.557-0.86c0.706-1.078,1.425-2.148,2.166-3.204
	c0.068-0.097,0.139-0.191,0.207-0.288c0.691-0.978,1.399-1.945,2.119-2.903c0.202-0.269,0.404-0.537,0.608-0.804
	c0.79-1.034,1.591-2.061,2.415-3.071c0.039-0.048,0.08-0.095,0.12-0.143c0.57-0.697,1.16-1.378,1.746-2.063
	c4.908,1.154,9.942,1.751,15.041,1.751h23.103c8.976,0,16.277,7.302,16.277,16.277c0,10.895,4.244,21.14,11.95,28.847
	c5.29,5.29,11.776,8.947,18.848,10.721v16.947c-11.524-2.015-22.137-7.488-30.576-15.933c-3.904-3.907-10.236-3.91-14.143-0.005
	c-3.907,3.904-3.909,10.235-0.006,14.142c12.229,12.238,27.839,19.853,44.725,22.018v41.476c0,5.523,4.478,10,10,10s10-4.477,10-10
	v-41.476c16.885-2.166,32.496-9.78,44.725-22.018c3.904-3.907,3.902-10.238-0.005-14.143c-3.905-3.903-10.238-3.9-14.142,0.005
	c-8.44,8.446-19.054,13.919-30.578,15.934v-16.947c7.072-1.774,13.557-5.432,18.848-10.722c7.706-7.707,11.95-17.952,11.95-28.847
	c0-4.345,1.694-8.435,4.759-11.504c3.084-3.078,7.174-4.773,11.519-4.773h23.103c5.11,0,10.148-0.598,15.054-1.755
	c0.576,0.674,1.157,1.345,1.719,2.031c0.045,0.055,0.093,0.11,0.138,0.165c0.822,1.008,1.621,2.032,2.41,3.064
	c0.205,0.268,0.407,0.537,0.61,0.806c0.716,0.953,1.42,1.914,2.108,2.887c0.071,0.101,0.146,0.2,0.217,0.302
	c0.742,1.057,1.461,2.128,2.168,3.207c0.185,0.282,0.368,0.566,0.55,0.849c0.205,0.319,0.4,0.644,0.603,0.964
	c-8.225,2.706-16.82,4.077-25.575,4.077h-13.56c-5.522,0-10,4.477-10,10s4.478,10,10,10h13.56c11.571,0,22.928-1.93,33.754-5.734
	l1.163-0.408c6.164,14.689,9.294,30.247,9.294,46.374c0,80.288-76.23,156.815-111.006,179.4c-8.158,5.299-18.711,5.332-26.889,0.086
	c-34.736-22.271-110.883-98.385-110.883-179.486C131.611,196.583,134.743,181.031,140.911,166.342z M439.388,438.584
	C397.755,474.034,337.504,492,260.204,492c-80.543,0-145.288-21.074-187.592-60.994V377.68c0.245,0.193,0.499,0.377,0.745,0.569
	c0.62,0.482,1.25,0.956,1.877,1.432c0.934,0.708,1.872,1.413,2.821,2.107c0.65,0.476,1.306,0.948,1.963,1.417
	c0.954,0.682,1.917,1.357,2.886,2.025c0.66,0.455,1.321,0.909,1.987,1.357c1.007,0.677,2.024,1.344,3.046,2.006
	c0.643,0.417,1.283,0.837,1.932,1.248c1.123,0.711,2.26,1.408,3.4,2.101c0.563,0.342,1.118,0.691,1.685,1.029
	c1.561,0.93,3.138,1.843,4.732,2.741c0.158,0.089,0.311,0.182,0.469,0.27c1.767,0.99,3.556,1.959,5.362,2.91
	c0.501,0.264,1.012,0.517,1.516,0.778c1.305,0.675,2.615,1.346,3.941,2c0.662,0.327,1.332,0.644,1.999,0.966
	c1.19,0.574,2.383,1.144,3.589,1.702c0.724,0.335,1.455,0.664,2.186,0.993c1.173,0.529,2.352,1.052,3.54,1.565
	c0.751,0.325,1.506,0.647,2.263,0.966c1.2,0.505,2.408,1.001,3.622,1.491c0.749,0.302,1.498,0.605,2.253,0.902
	c1.278,0.502,2.568,0.991,3.861,1.476c0.701,0.263,1.398,0.53,2.104,0.788c1.489,0.544,2.994,1.072,4.504,1.595
	c0.521,0.18,1.035,0.368,1.558,0.545c2.063,0.7,4.142,1.381,6.242,2.041c0.152,0.048,0.307,0.091,0.458,0.139
	c1.926,0.601,3.867,1.185,5.823,1.751c0.661,0.191,1.331,0.372,1.995,0.559c1.462,0.413,2.928,0.821,4.407,1.214
	c0.794,0.211,1.595,0.414,2.394,0.619c1.371,0.353,2.747,0.701,4.132,1.038c0.85,0.207,1.704,0.408,2.559,0.608
	c1.362,0.319,2.73,0.631,4.106,0.935c0.869,0.192,1.739,0.382,2.613,0.567c1.398,0.297,2.806,0.583,4.218,0.864
	c0.856,0.17,1.709,0.343,2.57,0.507c1.506,0.288,3.023,0.561,4.544,0.83c0.773,0.137,1.542,0.28,2.319,0.412
	c1.88,0.32,3.775,0.622,5.678,0.915c0.426,0.066,0.846,0.138,1.273,0.202c2.345,0.353,4.708,0.684,7.087,0.995
	c0.584,0.076,1.176,0.142,1.761,0.216c1.787,0.225,3.578,0.445,5.383,0.646c0.867,0.097,1.742,0.183,2.613,0.275
	c1.543,0.162,3.089,0.321,4.645,0.466c0.963,0.09,1.932,0.172,2.9,0.255c1.486,0.128,2.977,0.25,4.475,0.363
	c1.005,0.076,2.013,0.147,3.023,0.215c1.491,0.101,2.989,0.194,4.492,0.28c1.011,0.058,2.022,0.115,3.038,0.167
	c1.547,0.078,3.103,0.143,4.662,0.205c0.977,0.039,1.95,0.081,2.931,0.114c1.713,0.057,3.438,0.097,5.166,0.135
	c0.833,0.018,1.661,0.044,2.497,0.058c2.567,0.042,5.147,0.067,7.745,0.067c2.497,0,4.975-0.021,7.44-0.057
	c0.804-0.012,1.598-0.034,2.399-0.049c1.658-0.032,3.314-0.067,4.958-0.116c0.938-0.028,1.869-0.064,2.802-0.098
	c1.495-0.053,2.987-0.11,4.47-0.177c0.974-0.044,1.944-0.094,2.913-0.144c1.437-0.074,2.868-0.154,4.293-0.241
	c0.967-0.059,1.932-0.121,2.894-0.186c1.429-0.097,2.851-0.202,4.268-0.313c0.929-0.072,1.86-0.143,2.784-0.221
	c1.479-0.125,2.948-0.262,4.414-0.401c0.837-0.08,1.679-0.155,2.512-0.239c1.71-0.173,3.406-0.362,5.097-0.555
	c0.571-0.065,1.148-0.124,1.717-0.191c2.265-0.269,4.514-0.556,6.746-0.861c0.415-0.057,0.822-0.121,1.235-0.179
	c1.802-0.253,3.597-0.513,5.377-0.79c0.75-0.116,1.491-0.242,2.237-0.363c1.437-0.233,2.872-0.468,4.295-0.716
	c0.825-0.144,1.643-0.295,2.463-0.444c1.334-0.243,2.664-0.49,3.984-0.746c0.841-0.163,1.678-0.331,2.514-0.5
	c1.296-0.262,2.586-0.531,3.87-0.807c0.822-0.177,1.644-0.354,2.461-0.536c1.303-0.291,2.597-0.591,3.887-0.896
	c0.772-0.182,1.547-0.362,2.315-0.55c1.387-0.339,2.762-0.691,4.134-1.047c0.648-0.168,1.301-0.33,1.945-0.501
	c1.815-0.483,3.615-0.982,5.403-1.495c0.188-0.054,0.379-0.104,0.567-0.158c1.99-0.575,3.961-1.17,5.916-1.781
	c0.512-0.16,1.016-0.329,1.525-0.492c1.42-0.453,2.836-0.911,4.238-1.383c0.681-0.23,1.354-0.468,2.03-0.702
	c1.22-0.422,2.437-0.848,3.642-1.285c0.727-0.263,1.447-0.533,2.169-0.801c1.146-0.427,2.287-0.859,3.419-1.299
	c0.731-0.284,1.459-0.571,2.184-0.861c1.12-0.448,2.233-0.903,3.34-1.364c0.705-0.294,1.411-0.587,2.111-0.886
	c1.139-0.487,2.268-0.985,3.393-1.486c0.646-0.288,1.295-0.571,1.936-0.864c1.249-0.57,2.483-1.153,3.714-1.741
	c0.498-0.238,1.003-0.469,1.499-0.71c1.723-0.838,3.431-1.691,5.119-2.564c0.163-0.084,0.322-0.173,0.484-0.257
	c1.514-0.788,3.016-1.589,4.502-2.406c0.551-0.303,1.093-0.616,1.64-0.923c1.089-0.611,2.175-1.224,3.248-1.85
	c0.627-0.366,1.247-0.74,1.869-1.112c0.981-0.586,1.958-1.175,2.925-1.774c0.645-0.399,1.284-0.803,1.923-1.208
	c0.934-0.592,1.863-1.191,2.785-1.796c0.635-0.417,1.269-0.836,1.898-1.259c0.92-0.618,1.831-1.245,2.737-1.876
	c0.607-0.422,1.215-0.843,1.816-1.271c0.242-0.172,0.49-0.338,0.73-0.511L439.388,438.584L439.388,438.584z"/>
<g>
</g>
<g>
</g>
<g>
</g>
<g>
</g>
<g>
</g>
<g>
</g>
<g>
</g>
<g>
</g>
<g>
</g>
<g>
</g>
<g>
</g>
<g>
</g>
<g>
</g>
<g>
</g>
<g>
</g>
</svg>
