<svg xmlns="http://www.w3.org/2000/svg" width="32" height="31" fill="none" viewBox="0 0 32 31">
  <g class="laser 2" clip-path="url(#clip0)">
    <g class="Group">
      <path fill="url(#paint0_linear)" d="M15.171.93l-.022 6.215c-.217.03-.43.071-.64.124l-1.024-2.498a.879.879 0 00-1.626.667l1.025 2.5c-.188.11-.369.23-.543.36l-4.38-4.412a.879.879 0 10-1.248 1.239l4.381 4.412c-.13.173-.252.353-.364.54L8.238 9.034a.879.879 0 00-.679 1.621l2.49 1.042a6.113 6.113 0 00-.129.64l-6.215-.023a.879.879 0 00-.006 1.758l6.215.022c.03.217.072.43.125.64L7.54 15.758a.879.879 0 00.667 1.627l2.5-1.025c.11.187.23.368.36.542l-4.412 4.38a.879.879 0 101.238 1.248l4.412-4.38c.173.13.354.251.54.363l-1.043 2.493a.88.88 0 001.622.678l1.042-2.49a6.136 6.136 0 003.037.01l1.024 2.498a.879.879 0 001.626-.667l-1.025-2.5c.187-.11.369-.23.543-.36l4.38 4.413a.879.879 0 101.248-1.239l-4.381-4.412c.13-.173.252-.353.364-.54l2.492 1.043a.879.879 0 00.679-1.621l-2.49-1.042c.054-.21.097-.422.129-.64l6.215.023a.88.88 0 00.006-1.758L22.1 12.38a6.09 6.09 0 00-.125-.64l2.498-1.024a.88.88 0 10-.667-1.627l-2.5 1.025a6.162 6.162 0 00-.36-.542l4.412-4.38a.876.876 0 00.005-1.244.879.879 0 00-1.243-.004l-4.413 4.38a6.167 6.167 0 00-.54-.363l1.044-2.493a.877.877 0 00-.472-1.15.879.879 0 00-1.15.472l-1.042 2.49a6.09 6.09 0 00-.639-.129l.022-6.216A.879.879 0 0015.171.93z" class="Vector"/>
      <path fill="url(#paint1_linear)" d="M13.37 13.227a2.64 2.64 0 001.749 2.492l-.048 13.452a.879.879 0 001.758.006l.047-13.451a2.641 2.641 0 001.767-2.48 2.64 2.64 0 00-2.627-2.646 2.64 2.64 0 00-2.646 2.627z" class="Vector_2"/>
    </g>
  </g>
  <defs>
    <linearGradient id="paint0_linear" x1="29.196" x2="2.829" y1="11.482" y2="11.388" class="paint0_linear" gradientUnits="userSpaceOnUse">
      <stop stop-color="#FFE59A"/>
      <stop offset="1" stop-color="#FFFFD5"/>
    </linearGradient>
    <linearGradient id="paint1_linear" x1="18.618" x2="13.345" y1="20.336" y2="20.317" class="paint1_linear" gradientUnits="userSpaceOnUse">
      <stop stop-color="#FD5900"/>
      <stop offset="1" stop-color="#FFDE00"/>
    </linearGradient>
    <clipPath id="clip0" class="clip0">
      <path fill="#fff" d="M0 0h30v30H0z" transform="rotate(-89.796 15.527 14.525)"/>
    </clipPath>
  </defs>
</svg>
