<svg id="Capa_1" enable-background="new 0 0 512 512" height="512" viewBox="0 0 512 512" width="512" xmlns="http://www.w3.org/2000/svg"><g><path d="m476 497h-40c-4.607 0-8.959-2.118-11.803-5.743l-80-102c-3.542-4.517-4.196-10.659-1.686-15.82 2.512-5.161 7.749-8.437 13.489-8.437h100c7.172 0 13.34 5.076 14.72 12.114l20 102c.862 4.4-.288 8.956-3.138 12.418s-7.098 5.468-11.582 5.468z" fill="#006bba"/><path d="m76 497h-40c-4.484 0-8.733-2.006-11.582-5.468-2.85-3.462-4-8.018-3.138-12.418l20-102c1.38-7.038 7.549-12.114 14.72-12.114h100c5.74 0 10.977 3.276 13.488 8.437 2.511 5.162 1.857 11.304-1.686 15.82l-80 102c-2.843 3.625-7.195 5.743-11.802 5.743z" fill="#2684e6"/><path d="m436 295h-360c-8.284 0-15-6.716-15-15v-70c0-107.523 87.477-195 195-195s195 87.477 195 195v70c0 8.284-6.716 15-15 15z" fill="#d5e7ff"/><path d="m436 295c8.284 0 15-6.716 15-15v-70c0-107.523-87.477-195-195-195v280z" fill="#acceff"/><path d="m356 295h-200c-8.284 0-15-6.716-15-15v-40c0-63.411 51.589-115 115-115s115 51.589 115 115v40c0 8.284-6.716 15-15 15z" fill="#8ee26b"/><path d="m356 295c8.284 0 15-6.716 15-15v-40c0-63.411-51.589-115-115-115v170z" fill="#70d840"/><path d="m497 395h-482c-8.284 0-15-6.716-15-15v-40c0-41.355 33.645-75 75-75h362c41.355 0 75 33.645 75 75v40c0 8.284-6.716 15-15 15z" fill="#45a1ff"/><path d="m437 265h-181v130h241c8.284 0 15-6.716 15-15v-40c0-41.355-33.645-75-75-75z" fill="#2684e6"/><path d="m290.987 185.001c-3.06 0-6.146-.933-8.81-2.87-6.7-4.873-8.182-14.253-3.309-20.954l40-55c4.873-6.699 14.254-8.182 20.953-3.308 6.7 4.873 8.182 14.253 3.309 20.954l-40 55c-2.935 4.036-7.506 6.178-12.143 6.178z" fill="#4aa221"/><path d="m221.012 185.001c-4.636 0-9.208-2.142-12.143-6.178l-40-55c-4.873-6.7-3.392-16.081 3.308-20.954s16.081-3.391 20.954 3.308l40 55c4.873 6.7 3.392 16.081-3.308 20.954-2.664 1.937-5.752 2.87-8.811 2.87z" fill="#70d840"/><circle cx="291" cy="215" fill="#555f5f" r="15"/><circle cx="221" cy="215" fill="#647878" r="15"/><circle cx="256" cy="330" fill="#ffdd54" r="15"/><circle cx="316" cy="330" fill="#ffcb00" r="15"/><circle cx="376" cy="330" fill="#ffcb00" r="15"/><circle cx="436" cy="330" fill="#ffcb00" r="15"/><g fill="#ffdd54"><circle cx="196" cy="330" r="15"/><circle cx="136" cy="330" r="15"/><circle cx="76" cy="330" r="15"/></g><path d="m271 330c0-8.284-6.716-15-15-15v30c8.284 0 15-6.716 15-15z" fill="#ffcb00"/></g></svg>